<svg id="ey2DYT1JSuj1"
  xmlns="http://www.w3.org/2000/svg"
  xmlns:xlink="http://www.w3.org/1999/xlink" viewBox="0 0 634 220" shape-rendering="geometricPrecision" text-rendering="geometricPrecision">
  <style>#ey2DYT1JSuj17_to {animation: ey2DYT1JSuj17_to__to 2000ms linear infinite normal forwards}@keyframes ey2DYT1JSuj17_to__to { 0% {transform: translate(-317px,110px)} 100% {transform: translate(951px,110px)}}</style>
  <defs>
    <linearGradient id="ey2DYT1JSuj17-fill" x1="0" y1="0.5" x2="1" y2="0.5" spreadMethod="pad" gradientUnits="objectBoundingBox" gradientTransform="translate(0 0)">
      <stop id="ey2DYT1JSuj17-fill-0" offset="0%" stop-color="rgba(57,57,57,0)"/>
      <stop id="ey2DYT1JSuj17-fill-1" offset="51%" stop-color="#a8a8a8"/>
      <stop id="ey2DYT1JSuj17-fill-2" offset="100%" stop-color="rgba(57,57,57,0)"/>
    </linearGradient>
  </defs>
  <g>
    <rect width="182" height="12" rx="3" ry="3" transform="translate(28 63)" fill="#393939"/>
    <rect width="318" height="12" rx="3" ry="3" transform="translate(28 105)" fill="#393939"/>
    <rect width="386" height="12" rx="3" ry="3" transform="translate(28 129)" fill="#393939"/>
    <rect width="244" height="12" rx="3" ry="3" transform="translate(28 153)" fill="#393939"/>
    <rect width="339" height="12" rx="3" ry="3" transform="translate(28 177)" fill="#393939"/>
    <rect width="69" height="10" rx="3" ry="3" transform="translate(46 17)" fill="#393939"/>
    <rect width="16" height="16" rx="8" ry="8" transform="translate(22 14)" fill="#393939"/>
    <g mask="url(#ey2DYT1JSuj18)">
      <g id="ey2DYT1JSuj17_to" transform="translate(-317,110)">
        <rect width="634" height="220" rx="0" ry="0" transform="translate(-317,-110)" fill="url(#ey2DYT1JSuj17-fill)"/>
      </g>
      <mask id="ey2DYT1JSuj18" mask-type="luminance">
        <g>
          <rect width="16" height="16" rx="8" ry="8" transform="translate(22 14)" fill="#393939"/>
          <rect width="182" height="12" rx="3" ry="3" transform="translate(28 63)" fill="#393939"/>
          <rect width="318" height="12" rx="3" ry="3" transform="translate(28 105)" fill="#393939"/>
          <rect width="386" height="12" rx="3" ry="3" transform="translate(28 129)" fill="#393939"/>
          <rect width="244" height="12" rx="3" ry="3" transform="translate(28 153)" fill="#393939"/>
          <rect width="339" height="12" rx="3" ry="3" transform="translate(28 177)" fill="#393939"/>
          <rect width="69" height="10" rx="3" ry="3" transform="translate(46 17)" fill="#393939"/>
        </g>
      </mask>
    </g>
  </g>
</svg>
