<svg width="16" height="17" viewBox="0 0 16 17" fill="none" xmlns="http://www.w3.org/2000/svg">
<path d="M6.5 3L9.5 3C9.5 2.17157 8.82843 1.5 8 1.5C7.17157 1.5 6.5 2.17157 6.5 3ZM5.5 3C5.5 1.61929 6.61929 0.5 8 0.5C9.38071 0.5 10.5 1.61929 10.5 3L15.5 3C15.7761 3 16 3.22386 16 3.5C16 3.77614 15.7761 4 15.5 4L14.4456 4L13.2521 14.3439C13.0774 15.8576 11.7957 17 10.2719 17H5.72813C4.20431 17 2.92256 15.8576 2.7479 14.3439L1.55437 4L0.5 4C0.223858 4 0 3.77614 0 3.5C0 3.22386 0.223858 3 0.5 3L5.5 3ZM3.74131 14.2292C3.85775 15.2384 4.71225 16 5.72813 16H10.2719C11.2878 16 12.1422 15.2384 12.2587 14.2292L13.439 4L2.56101 4L3.74131 14.2292ZM6.5 6.5C6.77614 6.5 7 6.72386 7 7L7 13C7 13.2761 6.77614 13.5 6.5 13.5C6.22386 13.5 6 13.2761 6 13L6 7C6 6.72386 6.22386 6.5 6.5 6.5ZM10 7C10 6.72386 9.77614 6.5 9.5 6.5C9.22386 6.5 9 6.72386 9 7V13C9 13.2761 9.22386 13.5 9.5 13.5C9.77614 13.5 10 13.2761 10 13V7Z" fill="#424242"/>
</svg>
