<?xml version="1.0" encoding="UTF-8"?>
<svg width="78" height="78" fill="none" viewBox="0 0 78 78" xmlns="http://www.w3.org/2000/svg">
<path d="m74.88 34.905c-8.0925 2.2425-16.136 4.4362-24.131 6.6787-4.485-9.5062-7.1175-20.182-7.6538-31.346 7.5563-1.9988 15.112-3.9975 22.718-6.045 1.0725 11.018 4.1438 21.499 9.0675 30.713z" fill="#E1DFDD"/>
<path d="m51.48 2.9248-28.811 16.77s4.5825 24.326 20.768 37.001c13.796-8.1413 29.201-17.16 29.201-17.16s-13.796-9.555-21.158-36.611z" fill="#C3F2F4"/>
<path d="m29.786 35.1c-2.145 0-4.1925 0.6337-5.8987 1.6575 2.8275 6.24 6.7275 13.162 11.992 19.061 3.12-1.9987 5.1675-5.5087 5.1675-9.5062 0-6.1913-5.0213-11.212-11.261-11.212z" fill="#C3F2F4"/>
<path d="m46.654 31.59-1.3163 0.78-0.78-1.2675-3.9975-6.63c-3.2662 2.535-4.1925 7.1662-1.9987 10.822 2.34 3.9 7.4587 5.2162 11.359 2.8275 3.6075-2.1938 4.9725-6.7275 3.315-10.481l-6.5812 3.9488z" fill="#fff"/>
<path d="m39.585 22.864 5.7525 9.6037 9.555-5.7525c-3.3638-4.9725-9.945-6.63-15.308-3.8512z" fill="#7BDDEF"/>
<path d="m11.651 62.071 9.6525-10.14 2.8275 2.73-9.6525 10.14-2.8275-2.73z" fill="url(#a)"/>
<path d="m37.83 57.489c6.63-4.1925 8.6288-12.968 4.4363-19.646-4.1925-6.6788-12.968-8.6288-19.646-4.4363-6.63 4.1925-8.6288 12.968-4.4363 19.646 4.2412 6.63 13.016 8.6287 19.646 4.4362zm-16.088-6.6787c-2.9737-4.68-1.5112-10.871 3.1201-13.845 2.1937-1.4138 4.7775-1.8038 7.1662-1.365 2.6813 0.4387 5.1188 1.9987 6.6788 4.485 2.9737 4.68 1.56 10.871-3.12 13.845-2.4863 1.56-5.3626 1.9012-7.9951 1.17-2.34-0.585-4.4362-2.0963-5.85-4.29z" fill="#3E8EED"/>
<path d="m6.6301 66.312 8.4825-8.8725 3.8025 3.6563-8.5312 8.8725c-1.0238 1.0725-2.6813 1.0725-3.705 0.0975-1.0238-1.0238-1.0725-2.6813-0.04875-3.7538z" fill="#3E8EED"/>
<path d="m11.212 21.937c4.5771 0 8.2875-3.7104 8.2875-8.2875 0-4.5771-3.7104-8.2875-8.2875-8.2875-4.5771 0-8.2875 3.7104-8.2875 8.2875 0 4.5771 3.7104 8.2875 8.2875 8.2875z" fill="#E1DFDD"/>
<path d="m62.79 75.465c3.7694 0 6.825-3.0556 6.825-6.825 0-3.7693-3.0556-6.825-6.825-6.825-3.7693 0-6.825 3.0557-6.825 6.825 0 3.7694 3.0557 6.825 6.825 6.825z" fill="#E1DFDD"/>
<path d="m54.551 70.59c3.2308 0 5.85-2.6191 5.85-5.85 0-3.2308-2.6192-5.85-5.85-5.85-3.2309 0-5.85 2.6192-5.85 5.85 0 3.2309 2.6191 5.85 5.85 5.85z" fill="#E1DFDD"/>
<path d="m55.965 68.64c0 0.585 0.0975 1.17 0.2438 1.755 2.3887-0.7313 4.1437-2.9738 4.1437-5.6063 0-0.8287-0.1462-1.6087-0.4875-2.2912-2.2912 1.0725-3.9 3.4125-3.9 6.1425z" fill="#C8C6C4"/>
<defs>
<linearGradient id="a" x1="15.336" x2="20.524" y1="60.69" y2="55.22" gradientUnits="userSpaceOnUse">
<stop stop-color="#106EBE" offset="0"/>
<stop stop-color="#2B88D8" offset="1"/>
</linearGradient>
</defs>
</svg>
