<?xml version="1.0" encoding="UTF-8"?>
<svg width="54" height="54" fill="none" viewBox="0 0 54 54" xmlns="http://www.w3.org/2000/svg">
<path d="m51.84 24.165c-5.6025 1.5525-11.171 3.0712-16.706 4.6237-3.105-6.5812-4.9275-13.972-5.2988-21.701 5.2313-1.3838 10.462-2.7675 15.728-4.185 0.7425 7.6275 2.8688 14.884 6.2775 21.262z" fill="#E1DFDD"/>
<path d="m35.64 2.0248-19.946 11.61s3.1725 16.841 14.378 25.616c9.5513-5.6363 20.216-11.88 20.216-11.88s-9.5513-6.615-14.648-25.346z" fill="#C3F2F4"/>
<path d="m20.621 24.3c-1.485 0-2.9025 0.4388-4.0837 1.1475 1.9575 4.32 4.6575 9.1125 8.3025 13.196 2.16-1.3838 3.5775-3.8138 3.5775-6.5813 0-4.2862-3.4763-7.7625-7.7963-7.7625z" fill="#C3F2F4"/>
<path d="m32.299 21.87-0.9112 0.54-0.54-0.8775-2.7675-4.59c-2.2613 1.755-2.9025 4.9612-1.3838 7.4925 1.62 2.7 5.1638 3.6112 7.8638 1.9575 2.4975-1.5188 3.4425-4.6575 2.295-7.2563l-4.5563 2.7338z" fill="#fff"/>
<path d="m27.405 15.829 3.9825 6.6487 6.615-3.9825c-2.3288-3.4425-6.885-4.59-10.598-2.6662z" fill="#7BDDEF"/>
<path d="m8.0664 42.972 6.6825-7.02 1.9575 1.89-6.6825 7.02-1.9575-1.89z" fill="url(#a)"/>
<path d="m26.19 39.8c4.59-2.9025 5.9738-8.9775 3.0713-13.601-2.9025-4.6238-8.9775-5.9738-13.601-3.0713-4.59 2.9025-5.9738 8.9775-3.0713 13.601 2.9362 4.59 9.0112 5.9737 13.601 3.0712zm-11.138-4.6237c-2.0587-3.24-1.0462-7.5263 2.1601-9.585 1.5187-0.9788 3.3075-1.2488 4.9612-0.945 1.8563 0.3037 3.5438 1.3837 4.6238 3.105 2.0587 3.24 1.08 7.5262-2.16 9.585-1.7213 1.08-3.7126 1.3162-5.5351 0.81-1.62-0.405-3.0712-1.4513-4.05-2.97z" fill="#3E8EED"/>
<path d="m4.5902 45.909 5.8725-6.1425 2.6325 2.5312-5.9062 6.1425c-0.70879 0.7425-1.8563 0.7425-2.565 0.0675-0.70875-0.7087-0.7425-1.8562-0.03375-2.5987z" fill="#3E8EED"/>
<path d="m7.7624 15.187c3.1688 0 5.7375-2.5687 5.7375-5.7375 0-3.1687-2.5687-5.7375-5.7375-5.7375-3.1687 0-5.7375 2.5688-5.7375 5.7375 0 3.1688 2.5688 5.7375 5.7375 5.7375z" fill="#E1DFDD"/>
<path d="m43.47 52.245c2.6096 0 4.725-2.1154 4.725-4.725 0-2.6095-2.1154-4.725-4.725-4.725-2.6095 0-4.725 2.1155-4.725 4.725 0 2.6096 2.1155 4.725 4.725 4.725z" fill="#E1DFDD"/>
<path d="m37.766 48.87c2.2367 0 4.05-1.8132 4.05-4.05 0-2.2367-1.8133-4.05-4.05-4.05-2.2368 0-4.05 1.8133-4.05 4.05 0 2.2368 1.8132 4.05 4.05 4.05z" fill="#E1DFDD"/>
<path d="m38.745 47.52c0 0.405 0.0675 0.81 0.1688 1.215 1.6537-0.5063 2.8687-2.0588 2.8687-3.8813 0-0.5737-0.1012-1.1137-0.3375-1.5862-1.5862 0.7425-2.7 2.3625-2.7 4.2525z" fill="#C8C6C4"/>
<defs>
<linearGradient id="a" x1="10.617" x2="14.209" y1="42.016" y2="38.229" gradientUnits="userSpaceOnUse">
<stop stop-color="#106EBE" offset="0"/>
<stop stop-color="#2B88D8" offset="1"/>
</linearGradient>
</defs>
</svg>
