<svg width="20" height="20" viewBox="0 0 20 20" fill="none" xmlns="http://www.w3.org/2000/svg">
<path d="M7.98047 16V9H3.98047V16C3.98047 16.2652 4.08582 16.5196 4.27336 16.7071C4.4609 16.8946 4.71525 17 4.98047 17H6.98047C7.24569 17 7.50004 16.8946 7.68758 16.7071C7.87511 16.5196 7.98047 16.2652 7.98047 16Z" fill="#185C37"/>
<path d="M11.9805 3H4.98047C4.71525 3 4.4609 3.10536 4.27336 3.29289C4.08582 3.48043 3.98047 3.73478 3.98047 4V10H7.98047V15H10.9805C11.2457 15 11.5 14.8946 11.6876 14.7071C11.8751 14.5196 11.9805 14.2652 11.9805 14V3Z" fill="#107C41"/>
<path d="M12 3H8V7H12V3Z" fill="#21A366"/>
<path d="M14.9805 12H11.9805V3H14.9805C15.2457 3 15.5 3.10536 15.6876 3.29289C15.8751 3.48043 15.9805 3.73478 15.9805 4V11C15.9805 11.2652 15.8751 11.5196 15.6876 11.7071C15.5 11.8946 15.2457 12 14.9805 12Z" fill="#33C481"/>
</svg>
