<svg xmlns="http://www.w3.org/2000/svg" viewBox="0 0 16 16"><title>project_16x1</title><path d="M4,11H15a1,1,0,0,1,1,1v3a1,1,0,0,1-1,1H5a1,1,0,0,1-1-1V11A0,0,0,0,1,4,11Z" fill="#185c37"/><path d="M10.889,0H3.111A1.187,1.187,0,0,0,2,1.25V5H12V1.25A1.187,1.187,0,0,0,10.889,0Z" fill="#33c481"/><path d="M2,5H12.856A1.144,1.144,0,0,1,14,6.144V11a0,0,0,0,1,0,0H3.144A1.144,1.144,0,0,1,2,9.856V5A0,0,0,0,1,2,5Z" fill="#21a366"/><path d="M9,14a2,2,0,0,0,2-2V5a1,1,0,0,0-1-1H2V9.856A1.144,1.144,0,0,0,3.144,11H4v3Z" opacity="0.5"/><path d="M9,14a2,2,0,0,0,2-2V5a1,1,0,0,0-1-1H2V9.856A1.144,1.144,0,0,0,3.144,11H4v3Z" opacity="0.1"/><rect y="3" width="10" height="10" rx="1" fill="#107c41"/><path d="M5.336,5A2.275,2.275,0,0,1,6.9,5.481a1.766,1.766,0,0,1,.541,1.393,2.023,2.023,0,0,1-.267,1.042,1.836,1.836,0,0,1-.762.71,2.484,2.484,0,0,1-1.144.253H4.182V11H3.072V5ZM4.182,7.962h.956A1.2,1.2,0,0,0,5.983,7.7a1.01,1.01,0,0,0,.285-.776q0-.993-1.094-.992H4.182Z" fill="#fff"/><rect width="16" height="16" fill="none"/><path d="M5.336,5A2.275,2.275,0,0,1,6.9,5.481a1.766,1.766,0,0,1,.541,1.393,2.023,2.023,0,0,1-.267,1.042,1.836,1.836,0,0,1-.762.71,2.484,2.484,0,0,1-1.144.253H4.182V11H3.072V5ZM4.182,7.962h.956A1.2,1.2,0,0,0,5.983,7.7a1.01,1.01,0,0,0,.285-.776q0-.993-1.094-.992H4.182Z" fill="#fff"/></svg>