<svg width="48" height="48" viewBox="0 0 48 48" fill="none" xmlns="http://www.w3.org/2000/svg">
<path d="M13.7617 24.0005V39.0909C13.7617 42.1866 17.104 44.05 19.6328 42.3642L42.2698 27.2733C43.4237 26.504 44.0007 25.2523 44.0009 24.0005L28.8813 21L13.7617 24.0005Z" fill="url(#paint0_linear_217221_1564)"/>
<path d="M19.6187 5.62652C17.0916 3.95699 13.7617 5.81923 13.7617 8.90918V24.0001H44.0009C44.0009 22.7532 43.4285 21.5062 42.2835 20.736C42.2789 20.7329 42.2744 20.7299 42.2698 20.7268L19.6328 5.63588C19.6281 5.63275 19.6234 5.62963 19.6187 5.62652Z" fill="url(#paint1_linear_217221_1564)"/>
<mask id="mask0_217221_1564" style="mask-type:alpha" maskUnits="userSpaceOnUse" x="13" y="5" width="31" height="38">
<path fill-rule="evenodd" clip-rule="evenodd" d="M13.759 8.90918C13.759 5.81923 17.0888 3.95699 19.6159 5.62652L19.6301 5.63588L42.267 20.7268L42.2808 20.736C43.4257 21.5062 43.9982 22.7532 43.9982 24.0001H13.759V8.90918ZM13.759 39.0907V24.0004H43.9982C43.998 25.2522 43.4209 26.5039 42.267 27.2731L19.6301 42.364C17.1012 44.0499 13.759 42.1864 13.759 39.0907Z" fill="url(#paint2_linear_217221_1564)"/>
</mask>
<g mask="url(#mask0_217221_1564)">
<g filter="url(#filter0_dd_217221_1564)">
<path d="M5.99927 14.953C5.99927 13.3803 7.71856 12.4537 8.97931 13.347L21.7483 22.3946C22.8431 23.1703 22.8431 24.831 21.7483 25.6067L8.97931 34.6543C7.71856 35.5477 5.99927 34.6211 5.99927 33.0483V14.953Z" fill="url(#paint3_linear_217221_1564)"/>
</g>
</g>
<path d="M6 14.9528C6 13.38 7.7193 12.4534 8.98004 13.3467L21.749 22.3944C22.8438 23.1701 22.8438 24.8308 21.749 25.6065L8.98004 34.6541C7.7193 35.5474 6 34.6208 6 33.048V14.9528Z" fill="url(#paint4_linear_217221_1564)"/>
<defs>
<filter id="filter0_dd_217221_1564" x="5.14051" y="12.1395" width="20.0052" height="25.4397" filterUnits="userSpaceOnUse" color-interpolation-filters="sRGB">
<feFlood flood-opacity="0" result="BackgroundImageFix"/>
<feColorMatrix in="SourceAlpha" type="matrix" values="0 0 0 0 0 0 0 0 0 0 0 0 0 0 0 0 0 0 127 0" result="hardAlpha"/>
<feOffset dx="0.858757" dy="0.858757"/>
<feGaussianBlur stdDeviation="0.858757"/>
<feColorMatrix type="matrix" values="0 0 0 0 0 0 0 0 0 0 0 0 0 0 0 0 0 0 0.23 0"/>
<feBlend mode="normal" in2="BackgroundImageFix" result="effect1_dropShadow_217221_1564"/>
<feColorMatrix in="SourceAlpha" type="matrix" values="0 0 0 0 0 0 0 0 0 0 0 0 0 0 0 0 0 0 127 0" result="hardAlpha"/>
<feOffset dy="0.171751"/>
<feGaussianBlur stdDeviation="0.0858757"/>
<feColorMatrix type="matrix" values="0 0 0 0 0 0 0 0 0 0 0 0 0 0 0 0 0 0 0.24 0"/>
<feBlend mode="normal" in2="effect1_dropShadow_217221_1564" result="effect2_dropShadow_217221_1564"/>
<feBlend mode="normal" in="SourceGraphic" in2="effect2_dropShadow_217221_1564" result="shape"/>
</filter>
<linearGradient id="paint0_linear_217221_1564" x1="13.7616" y1="23.9571" x2="15.4767" y2="42.8605" gradientUnits="userSpaceOnUse">
<stop offset="0.0961728" stop-color="#BD3177"/>
<stop offset="0.990776" stop-color="#832054"/>
</linearGradient>
<linearGradient id="paint1_linear_217221_1564" x1="13.7616" y1="4.95656" x2="15.4916" y2="23.7831" gradientUnits="userSpaceOnUse">
<stop offset="0.0961728" stop-color="#F992CA"/>
<stop offset="0.990776" stop-color="#DA3988"/>
</linearGradient>
<linearGradient id="paint2_linear_217221_1564" x1="13.7588" y1="4.95656" x2="15.4889" y2="23.7832" gradientUnits="userSpaceOnUse">
<stop offset="0.0961728" stop-color="#FF98E8"/>
<stop offset="0.990776" stop-color="#E11275"/>
</linearGradient>
<linearGradient id="paint3_linear_217221_1564" x1="14.2843" y1="12.9983" x2="14.2843" y2="35.003" gradientUnits="userSpaceOnUse">
<stop stop-color="#9D73CB"/>
<stop offset="0.488577" stop-color="#BC1948"/>
<stop offset="1" stop-color="#EE6F99"/>
</linearGradient>
<linearGradient id="paint4_linear_217221_1564" x1="5.99992" y1="12.9477" x2="10.1152" y2="34.1363" gradientUnits="userSpaceOnUse">
<stop offset="0.0961728" stop-color="#F992CA"/>
<stop offset="0.990776" stop-color="#DA3988"/>
</linearGradient>
</defs>
</svg>
