<svg width="20" height="19" viewBox="0 0 20 19" fill="none" xmlns="http://www.w3.org/2000/svg">
<path d="M19.725 12.6875L17.4625 14L19.725 15.3125L18.925 16.6875L16.6625 15.3875V18H15.0625V15.3875L12.8 16.6875L12 15.3125L14.2625 14L12 12.6875L12.8 11.3125L15.0625 12.6125V10H16.6625V12.6125L18.925 11.3125L19.725 12.6875Z" fill="#C4314B"/>
<path fill-rule="evenodd" clip-rule="evenodd" d="M18.2105 8.75C17.5723 4.78143 14.1318 1.75 9.98324 1.75C5.38086 1.75 1.6499 5.48096 1.6499 10.0833C1.6499 14.6857 5.38086 18.4167 9.98324 18.4167C10.2758 18.4167 10.5649 18.4016 10.8497 18.3722C10.8279 18.2514 10.8166 18.127 10.8166 18V17.1182C10.5432 17.1502 10.2652 17.1667 9.98324 17.1667C6.07122 17.1667 2.8999 13.9953 2.8999 10.0833C2.8999 6.17132 6.07122 3 9.98324 3C13.4395 3 16.3175 5.4754 16.9413 8.75H18.2105Z" fill="#858585"/>
</svg>
