<svg width="600" height="241" viewBox="0 0 600 241" fill="none" xmlns="http://www.w3.org/2000/svg">
<g opacity="0.6">
<g filter="url(#filter0_d_76_1097)">
<path d="M139.453 148.32L133.622 156.007L128.596 152.195L145.522 129.88L153.396 135.853C159.018 140.118 160.032 144.621 156.436 149.362C154.736 151.603 152.55 152.804 149.877 152.967C147.222 153.127 144.546 152.184 141.849 150.138L139.453 148.32ZM147.621 137.552L142.345 144.508L144.321 146.007C146.997 148.037 149.225 147.88 151.003 145.535C152.742 143.243 152.274 141.081 149.597 139.051L147.621 137.552ZM181.6 157.247L163.427 166.113L157.407 174.049L152.381 170.237L158.33 162.394L162.227 142.552L167.969 146.907L165.249 157.959C165.193 158.162 164.904 158.899 164.381 160.169L164.443 160.216C165.145 159.572 165.75 159.108 166.26 158.824L176.279 153.21L181.6 157.247Z" fill="url(#paint0_linear_76_1097)"/>
</g>
<g filter="url(#filter1_d_76_1097)">
<path d="M185.288 161.163L189.896 169.64L184.354 172.653L170.975 148.047L179.658 143.327C185.858 139.955 190.379 140.884 193.222 146.112C194.565 148.582 194.761 151.069 193.81 153.573C192.864 156.058 190.904 158.109 187.93 159.727L185.288 161.163ZM178.832 149.289L183.002 156.959L185.181 155.774C188.132 154.17 188.905 152.075 187.5 149.49C186.125 146.961 183.962 146.5 181.011 148.104L178.832 149.289ZM209.704 126.99L210.312 147.201L215.07 155.952L209.528 158.966L204.826 150.318L188.342 138.605L194.673 135.162L203.628 142.187C203.79 142.322 204.343 142.888 205.286 143.887L205.355 143.85C205.056 142.945 204.882 142.202 204.832 141.622L203.836 130.18L209.704 126.99Z" fill="url(#paint1_linear_76_1097)"/>
</g>
<g filter="url(#filter2_d_76_1097)">
<path d="M122.619 42.3089L115.797 49.1314L111.336 44.6705L131.14 24.866L138.129 31.8542C143.119 36.8445 143.51 41.4434 139.303 45.6511C137.314 47.6398 134.984 48.5329 132.314 48.3304C129.663 48.1278 127.14 46.8296 124.746 44.4358L122.619 42.3089ZM132.176 32.7519L126.003 38.9253L127.757 40.6793C130.132 43.0547 132.36 43.202 134.441 41.1212C136.476 39.0864 136.306 36.8813 133.93 34.5059L132.176 32.7519ZM163.161 56.8864L143.95 63.1978L136.907 70.2413L132.446 65.7804L139.406 58.8199L145.966 39.6921L151.063 44.7882L146.864 55.3672C146.781 55.5605 146.395 56.2511 145.704 57.4388L145.759 57.494C146.542 56.9508 147.205 56.5733 147.748 56.3616L158.438 52.1631L163.161 56.8864Z" fill="url(#paint2_linear_76_1097)"/>
</g>
<g filter="url(#filter3_d_76_1097)">
<path d="M8.48222 158.044L18.6688 173.862L8.32606 180.523L-21.2438 134.605L-5.0413 124.171C6.52888 116.72 15.4552 117.872 21.7376 127.628C24.7069 132.239 25.4476 137.047 23.9595 142.052C22.4791 147.022 18.9637 151.294 13.4134 154.868L8.48222 158.044ZM-5.78721 135.885L3.43018 150.199L7.49682 147.58C13.0044 144.033 14.2048 139.848 11.0979 135.023C8.05985 130.305 3.78701 129.72 -1.72057 133.267L-5.78721 135.885ZM51.0297 88.0625L55.1294 127.28L65.6458 143.61L55.3031 150.271L44.9104 134.132L11.1638 113.735L22.9795 106.126L41.4083 118.494C41.7425 118.732 42.899 119.754 44.8775 121.56L45.0056 121.477C44.2934 119.762 43.8475 118.342 43.6682 117.22L40.0786 95.1147L51.0297 88.0625Z" fill="url(#paint3_linear_76_1097)"/>
</g>
<g filter="url(#filter4_d_76_1097)">
<path d="M384.965 49.5248L379.801 59.3455L373.38 55.9689L388.371 27.4611L398.43 32.7507C405.613 36.528 407.612 41.445 404.428 47.5017C402.922 50.3645 400.669 52.1402 397.667 52.8289C394.686 53.5114 391.473 52.9467 388.027 51.1347L384.965 49.5248ZM392.199 35.7679L387.527 44.6542L390.051 45.9818C393.471 47.7799 395.968 47.1813 397.543 44.186C399.083 41.257 398.143 38.8935 394.724 37.0955L392.199 35.7679ZM433.241 51.056L414.298 64.5432L408.967 74.682L402.546 71.3054L407.814 61.2859L408.491 38.0411L415.826 41.8985L414.826 54.9491C414.801 55.1897 414.612 56.08 414.259 57.6201L414.338 57.6619C415.013 56.7982 415.612 56.1574 416.136 55.7395L426.442 47.4808L433.241 51.056Z" fill="url(#paint4_linear_76_1097)"/>
</g>
<g filter="url(#filter5_d_76_1097)">
<path d="M363.527 71.2953L368.302 74.1198L366.455 77.2419L352.594 69.0431L355.487 64.152C357.553 60.6593 360.058 59.784 363.003 61.5259C364.395 62.3492 365.226 63.5189 365.495 65.0349C365.761 66.5407 365.398 68.1313 364.407 69.8068L363.527 71.2953ZM356.838 67.3389L361.159 69.8946L361.885 68.667C362.868 67.0044 362.632 65.7424 361.175 64.881C359.751 64.0386 358.548 64.4487 357.564 66.1113L356.838 67.3389ZM365.499 47.2259L371.76 57.0229L376.69 59.9388L374.843 63.061L369.972 60.1794L358.381 59.2602L360.49 55.6934L366.982 56.5194C367.102 56.5379 367.542 56.6545 368.302 56.8693L368.325 56.8307C367.911 56.4724 367.606 56.1572 367.41 55.8849L363.543 50.5317L365.499 47.2259Z" fill="url(#paint5_linear_76_1097)"/>
</g>
<g filter="url(#filter6_d_76_1097)">
<path d="M301.924 69.2808L300.298 73.0451L297.836 71.9818L302.557 61.0546L306.413 62.7204C309.166 63.9099 310.042 65.6654 309.039 67.987C308.565 69.0843 307.784 69.8021 306.698 70.1405C305.618 70.476 304.418 70.3584 303.098 69.7878L301.924 69.2808ZM304.202 64.0077L302.731 67.4139L303.698 67.832C305.009 68.3982 305.912 68.1073 306.408 66.9592C306.893 65.8365 306.481 64.992 305.17 64.4258L304.202 64.0077ZM319.912 68.5524L313.312 74.056L311.633 77.9422L309.172 76.8789L310.831 73.0384L310.425 64.4538L313.237 65.6686L313.236 70.5058C313.234 70.5952 313.189 70.9285 313.103 71.506L313.133 71.5191C313.357 71.1819 313.56 70.9289 313.741 70.7601L317.306 67.4265L319.912 68.5524Z" fill="url(#paint6_linear_76_1097)"/>
</g>
<path d="M291.952 184.663L293.682 188.381L291.251 189.512L286.229 178.72L290.037 176.948C292.756 175.683 294.649 176.196 295.716 178.489C296.22 179.573 296.238 180.633 295.768 181.669C295.301 182.699 294.415 183.517 293.111 184.124L291.952 184.663ZM289.528 179.456L291.094 182.82L292.049 182.375C293.344 181.772 293.727 180.904 293.199 179.77C292.683 178.661 291.778 178.408 290.484 179.011L289.528 179.456ZM303.369 170.743L303.091 179.333L304.877 183.171L302.446 184.302L300.681 180.509L293.999 175.104L296.776 173.812L300.389 177.029C300.454 177.09 300.673 177.345 301.047 177.794L301.077 177.78C300.974 177.388 300.92 177.068 300.914 176.821L300.795 171.941L303.369 170.743Z" fill="url(#paint7_linear_76_1097)"/>
<path d="M473.934 155.364L475.683 166.321L468.519 167.464L463.442 135.658L474.665 133.866C482.68 132.587 487.226 135.326 488.305 142.084C488.815 145.278 488.074 148.049 486.084 150.399C484.106 152.731 481.195 154.205 477.35 154.818L473.934 155.364ZM471.484 140.015L473.067 149.929L475.884 149.48C479.699 148.871 481.34 146.895 480.806 143.554C480.284 140.286 478.116 138.956 474.301 139.565L471.484 140.015ZM513.504 127.666L506.418 149.814L508.223 161.126L501.059 162.27L499.275 151.091L485.89 132.074L494.075 130.768L501.092 141.816C501.216 142.024 501.599 142.85 502.239 144.295L502.327 144.281C502.35 143.185 502.445 142.313 502.615 141.664L505.919 128.877L513.504 127.666Z" fill="url(#paint8_linear_76_1097)"/>
<g filter="url(#filter7_d_76_1097)">
<path d="M513.538 165.8L516.684 170.369L513.697 172.426L504.562 159.163L509.242 155.94C512.585 153.638 515.226 153.896 517.167 156.714C518.084 158.046 518.346 159.456 517.953 160.945C517.562 162.423 516.565 163.715 514.962 164.819L513.538 165.8ZM509.13 159.399L511.977 163.534L513.152 162.725C514.742 161.629 515.058 160.384 514.098 158.991C513.16 157.628 511.895 157.495 510.304 158.59L509.13 159.399ZM525.439 144.786L527.005 156.307L530.254 161.024L527.266 163.081L524.056 158.42L513.923 152.716L517.336 150.366L522.881 153.843C522.981 153.91 523.332 154.2 523.931 154.715L523.968 154.689C523.743 154.19 523.598 153.776 523.535 153.446L522.275 146.964L525.439 144.786Z" fill="url(#paint9_linear_76_1097)"/>
</g>
<g filter="url(#filter8_d_76_1097)">
<path d="M579.246 139.502L584.171 146.653L579.495 149.874L565.198 129.114L572.523 124.069C577.754 120.466 581.888 120.87 584.926 125.281C586.362 127.366 586.772 129.573 586.157 131.903C585.545 134.217 583.984 136.238 581.475 137.966L579.246 139.502ZM572.346 129.484L576.803 135.955L578.641 134.689C581.132 132.974 581.625 131.026 580.123 128.845C578.654 126.712 576.675 126.503 574.185 128.217L572.346 129.484ZM597.873 106.61L600.325 124.643L605.41 132.026L600.734 135.247L595.709 127.95L579.849 119.023L585.192 115.344L593.87 120.786C594.027 120.891 594.575 121.346 595.514 122.151L595.572 122.111C595.219 121.33 594.993 120.682 594.894 120.166L592.922 110.02L597.873 106.61Z" fill="url(#paint10_linear_76_1097)"/>
</g>
<g filter="url(#filter9_d_76_1097)">
<path d="M114.761 101.781L115.822 105.741L113.233 106.435L110.152 94.9376L114.209 93.8505C117.106 93.0742 118.882 93.9075 119.536 96.3503C119.846 97.5048 119.679 98.552 119.037 99.4917C118.399 100.425 117.386 101.077 115.996 101.45L114.761 101.781ZM113.274 96.2321L114.235 99.8161L115.253 99.5433C116.632 99.1738 117.16 98.385 116.836 97.1769C116.519 95.9956 115.672 95.5897 114.293 95.9593L113.274 96.2321ZM128.741 89.9565L126.982 98.3684L128.078 102.458L125.488 103.151L124.405 99.1104L118.759 92.6312L121.718 91.8385L124.719 95.6318C124.773 95.7034 124.945 95.9924 125.235 96.499L125.267 96.4904C125.234 96.0869 125.236 95.7627 125.273 95.5178L125.999 90.6912L128.741 89.9565Z" fill="url(#paint11_linear_76_1097)"/>
</g>
<g filter="url(#filter10_d_76_1097)">
<path d="M116.862 202.594L115.344 206.403L112.853 205.411L117.258 194.353L121.16 195.907C123.947 197.017 124.872 198.747 123.936 201.097C123.494 202.207 122.734 202.947 121.658 203.316C120.589 203.683 119.386 203.599 118.049 203.067L116.862 202.594ZM118.987 197.258L117.614 200.705L118.594 201.095C119.92 201.623 120.815 201.306 121.277 200.145C121.73 199.008 121.293 198.176 119.967 197.648L118.987 197.258ZM135.138 201.475L128.698 207.166L127.131 211.099L124.64 210.107L126.189 206.22L125.537 197.651L128.382 198.784L128.52 203.62C128.52 203.709 128.485 204.044 128.415 204.623L128.446 204.635C128.66 204.292 128.856 204.033 129.032 203.859L132.5 200.425L135.138 201.475Z" fill="url(#paint12_linear_76_1097)"/>
</g>
<g filter="url(#filter11_d_76_1097)">
<path d="M234.837 211.751L236.222 215.611L233.698 216.516L229.678 205.312L233.631 203.894C236.455 202.881 238.293 203.564 239.147 205.945C239.551 207.07 239.472 208.127 238.91 209.117C238.351 210.099 237.394 210.833 236.04 211.319L234.837 211.751ZM232.897 206.344L234.15 209.837L235.142 209.481C236.486 208.999 236.947 208.169 236.525 206.992C236.111 205.841 235.233 205.506 233.889 205.988L232.897 206.344ZM247.793 198.812L246.734 207.341L248.164 211.326L245.641 212.231L244.228 208.293L238.066 202.303L240.949 201.268L244.253 204.801C244.313 204.868 244.508 205.141 244.839 205.622L244.87 205.611C244.803 205.212 244.779 204.888 244.796 204.641L245.121 199.771L247.793 198.812Z" fill="url(#paint13_linear_76_1097)"/>
</g>
<path d="M347.564 109.199L339.155 95.8635C338.86 95.3963 338.243 95.2564 337.775 95.551L335.322 97.0982C334.855 97.3928 334.715 98.0103 335.009 98.4775L343.418 111.813C343.713 112.28 344.33 112.42 344.798 112.126L347.251 110.579C347.718 110.284 347.858 109.666 347.564 109.199Z" fill="url(#paint14_linear_76_1097)"/>
<path d="M340.827 113.447L332.418 100.111C332.124 99.6438 331.506 99.5039 331.039 99.7985L328.585 101.346C328.118 101.64 327.978 102.258 328.273 102.725L336.682 116.061C336.976 116.528 337.594 116.668 338.061 116.373L340.515 114.826C340.982 114.532 341.122 113.914 340.827 113.447Z" fill="url(#paint15_linear_76_1097)"/>
<path d="M402.292 82.7057L381.709 103.197C381.317 103.586 381.316 104.22 381.706 104.611L386.336 109.263C386.726 109.654 387.359 109.656 387.751 109.266L408.334 88.7748C408.725 88.3852 408.726 87.752 408.337 87.3606L403.706 82.7089C403.316 82.3175 402.683 82.3161 402.292 82.7057Z" fill="url(#paint16_linear_76_1097)"/>
<path d="M412.11 92.5676L391.527 113.059C391.136 113.448 391.134 114.081 391.524 114.473L396.155 119.125C396.544 119.516 397.178 119.517 397.569 119.128L418.152 98.6366C418.543 98.247 418.545 97.6138 418.155 97.2224L413.524 92.5707C413.135 92.1793 412.501 92.1779 412.11 92.5676Z" fill="url(#paint17_linear_76_1097)"/>
<path d="M377.807 122.879L377.559 127.214L374.725 127.051L375.445 114.468L379.885 114.723C383.056 114.904 384.565 116.332 384.412 119.005C384.339 120.269 383.824 121.266 382.867 121.998C381.916 122.724 380.68 123.043 379.159 122.956L377.807 122.879ZM378.155 116.807L377.93 120.729L379.045 120.793C380.554 120.879 381.347 120.262 381.422 118.94C381.496 117.647 380.779 116.957 379.269 116.871L378.155 116.807ZM395.251 115.603L390.689 123.476L390.432 127.951L387.598 127.788L387.851 123.366L384.326 114.977L387.564 115.162L389.322 119.973C389.352 120.063 389.429 120.41 389.553 121.016L389.588 121.018C389.688 120.601 389.798 120.276 389.917 120.042L392.25 115.431L395.251 115.603Z" fill="url(#paint18_linear_76_1097)"/>
<path d="M434.545 62.1093L419.872 54L417.635 58.0476L432.308 66.1569L434.545 62.1093Z" fill="#33C481"/>
<path d="M430.909 68.6865L416.237 60.5771L414 64.6247L428.672 72.7341L430.909 68.6865Z" fill="#21A366"/>
<path d="M483.846 91.001L462.499 85.2597C461.966 85.1163 461.417 85.4324 461.273 85.9657L460.066 90.4559C459.922 90.9892 460.238 91.5378 460.772 91.6813L482.119 97.4226C482.652 97.566 483.201 97.2499 483.344 96.7166L484.552 92.2264C484.695 91.6931 484.379 91.1444 483.846 91.001Z" fill="url(#paint19_linear_76_1097)"/>
<path d="M481.039 101.436L459.692 95.6948C459.159 95.5513 458.61 95.8674 458.467 96.4007L457.259 100.891C457.116 101.424 457.432 101.973 457.965 102.116L479.312 107.858C479.845 108.001 480.394 107.685 480.537 107.152L481.745 102.661C481.888 102.128 481.572 101.58 481.039 101.436Z" fill="url(#paint20_linear_76_1097)"/>
<g filter="url(#filter12_d_76_1097)">
<path d="M474.716 108.157L452.547 94.8297C452.074 94.5451 451.459 94.6982 451.175 95.1715L448.244 100.046C447.96 100.519 448.113 101.134 448.586 101.418L470.755 114.746C471.229 115.03 471.843 114.877 472.128 114.404L475.058 109.529C475.343 109.056 475.19 108.442 474.716 108.157Z" fill="url(#paint21_linear_76_1097)"/>
</g>
<g filter="url(#filter13_d_76_1097)">
<path d="M468.28 118.864L446.111 105.536C445.637 105.252 445.023 105.405 444.738 105.878L441.808 110.752C441.524 111.226 441.677 111.84 442.15 112.125L464.319 125.452C464.793 125.737 465.407 125.584 465.691 125.11L468.622 120.236C468.906 119.763 468.753 119.148 468.28 118.864Z" fill="url(#paint22_linear_76_1097)"/>
</g>
<path d="M506.153 25.4881L481.619 46.5536C481.2 46.9134 481.152 47.5448 481.512 47.9638L486.38 53.6329C486.74 54.0519 487.371 54.0999 487.79 53.7401L512.324 32.6746C512.743 32.3148 512.791 31.6835 512.431 31.2645L507.563 25.5954C507.203 25.1763 506.572 25.1283 506.153 25.4881Z" fill="url(#paint23_linear_76_1097)"/>
<path d="M516.18 37.1658L491.646 58.2314C491.227 58.5912 491.179 59.2225 491.539 59.6415L496.407 65.3106C496.767 65.7296 497.398 65.7777 497.817 65.4179L522.351 44.3523C522.77 43.9926 522.818 43.3612 522.458 42.9422L517.59 37.2731C517.23 36.8541 516.599 36.8061 516.18 37.1658Z" fill="url(#paint24_linear_76_1097)"/>
<path d="M203.532 98.9432L180.799 84.3755C180.334 84.0775 179.715 84.2129 179.417 84.6779L176.18 89.7296C175.882 90.1946 176.018 90.8132 176.483 91.1111L199.215 105.679C199.68 105.977 200.299 105.841 200.597 105.376L203.834 100.325C204.132 99.8597 203.997 99.2412 203.532 98.9432Z" fill="#33C481"/>
<path d="M196.518 109.889L173.785 95.3208C173.32 95.0228 172.701 95.1582 172.403 95.6232L169.166 100.675C168.868 101.14 169.003 101.758 169.468 102.056L192.201 116.624C192.666 116.922 193.285 116.787 193.583 116.322L196.82 111.27C197.118 110.805 196.983 110.186 196.518 109.889Z" fill="#21A366"/>
<path d="M278.324 100.85L251.394 98.9079C250.843 98.8681 250.365 99.2825 250.325 99.8333L249.893 105.818C249.854 106.369 250.268 106.847 250.819 106.887L277.749 108.829C278.3 108.869 278.778 108.454 278.818 107.904L279.25 101.919C279.289 101.368 278.875 100.89 278.324 100.85Z" fill="#33C481"/>
<path d="M277.389 113.816L250.459 111.874C249.908 111.834 249.429 112.249 249.39 112.8L248.958 118.784C248.918 119.335 249.333 119.814 249.884 119.853L276.814 121.795C277.365 121.835 277.843 121.421 277.883 120.87L278.315 114.885C278.354 114.335 277.94 113.856 277.389 113.816Z" fill="#21A366"/>
<g filter="url(#filter14_d_76_1097)">
<path d="M275.958 136.66L273.637 146.025L267.514 144.508L274.25 117.323L283.842 119.699C290.693 121.397 293.402 125.133 291.971 130.909C291.295 133.639 289.761 135.606 287.37 136.811C284.994 138.007 282.163 138.198 278.877 137.384L275.958 136.66ZM279.208 123.541L277.109 132.016L279.516 132.612C282.777 133.42 284.761 132.396 285.469 129.539C286.161 126.746 284.877 124.946 281.616 124.138L279.208 123.541ZM317.039 127.924L303.846 143.248L301.45 152.917L295.327 151.399L297.694 141.845L293.437 122.076L300.432 123.81L302.299 135.037C302.327 135.246 302.353 136.037 302.375 137.41L302.45 137.429C302.84 136.56 303.213 135.894 303.569 135.432L310.556 126.318L317.039 127.924Z" fill="url(#paint25_linear_76_1097)"/>
</g>
<g filter="url(#filter15_d_76_1097)">
<path d="M349.001 144.049L340.238 150.854L335.788 145.125L361.226 125.368L368.197 134.344C373.175 140.754 372.962 146.058 367.557 150.255C365.003 152.239 362.217 152.924 359.199 152.31C356.203 151.698 353.51 149.855 351.122 146.78L349.001 144.049ZM361.276 134.515L353.347 140.673L355.097 142.926C357.466 145.977 359.987 146.465 362.66 144.389C365.274 142.359 365.396 139.819 363.026 136.768L361.276 134.515ZM392.322 165.408L369.497 169.853L360.45 176.88L356 171.15L364.94 164.206L375.169 143.322L380.253 149.868L373.945 161.336C373.823 161.545 373.282 162.278 372.324 163.534L372.379 163.605C373.35 163.097 374.161 162.761 374.811 162.598L387.61 159.341L392.322 165.408Z" fill="url(#paint26_linear_76_1097)"/>
</g>
<g filter="url(#filter16_d_76_1097)">
<path d="M422.238 141.581L420.705 147.662L416.729 146.66L421.177 129.007L427.406 130.576C431.855 131.697 433.606 134.133 432.661 137.884C432.214 139.656 431.212 140.931 429.655 141.708C428.108 142.479 426.267 142.596 424.134 142.058L422.238 141.581ZM424.384 133.062L422.998 138.565L424.561 138.958C426.679 139.492 427.971 138.831 428.438 136.977C428.895 135.163 428.065 133.989 425.948 133.456L424.384 133.062ZM448.963 136.008L440.348 145.935L438.766 152.213L434.789 151.211L436.353 145.006L433.637 132.146L438.179 133.291L439.363 140.594C439.381 140.729 439.396 141.243 439.407 142.136L439.456 142.149C439.711 141.585 439.955 141.153 440.188 140.854L444.753 134.947L448.963 136.008Z" fill="url(#paint27_linear_76_1097)"/>
</g>
<path d="M512.238 209.581L510.705 215.662L506.729 214.66L511.177 197.007L517.406 198.576C521.855 199.697 523.606 202.133 522.661 205.884C522.214 207.656 521.212 208.931 519.655 209.708C518.108 210.479 516.267 210.596 514.134 210.058L512.238 209.581ZM514.384 201.062L512.998 206.565L514.561 206.958C516.679 207.492 517.971 206.831 518.438 204.977C518.895 203.163 518.065 201.989 515.948 201.456L514.384 201.062ZM538.963 204.008L530.348 213.935L528.766 220.213L524.789 219.211L526.353 213.006L523.637 200.146L528.179 201.291L529.363 208.594C529.381 208.729 529.396 209.243 529.407 210.136L529.456 210.149C529.711 209.585 529.955 209.153 530.188 208.854L534.753 202.947L538.963 204.008Z" fill="url(#paint28_linear_76_1097)"/>
<g opacity="0.24">
<g filter="url(#filter17_d_76_1097)">
<path d="M226.255 187.215L252.898 182.836C253.442 182.746 253.812 182.232 253.722 181.687L252.749 175.766C252.659 175.221 252.145 174.852 251.6 174.941L224.958 179.32C224.413 179.41 224.043 179.924 224.133 180.469L225.106 186.39C225.196 186.935 225.71 187.304 226.255 187.215Z" fill="url(#paint29_linear_76_1097)"/>
</g>
<g filter="url(#filter18_d_76_1097)">
<path d="M224.147 174.386L250.789 170.007C251.334 169.918 251.703 169.403 251.614 168.858L250.641 162.938C250.551 162.393 250.037 162.024 249.492 162.113L222.849 166.492C222.304 166.582 221.935 167.096 222.025 167.641L222.998 173.562C223.087 174.107 223.602 174.476 224.147 174.386Z" fill="url(#paint30_linear_76_1097)"/>
</g>
</g>
<path d="M295.435 40.4272L259.867 34.584L258.255 44.3958L293.823 50.239L295.435 40.4272Z" fill="#33C481"/>
<path d="M292.816 56.3715L257.248 50.5283L255.636 60.3401L291.204 66.1833L292.816 56.3715Z" fill="#21A366"/>
<g opacity="0.6">
<path d="M69.1994 169.419L41.9421 160.561L39.4986 168.08L66.7559 176.938L69.1994 169.419Z" fill="#33C481"/>
<path d="M65.2287 181.638L37.9714 172.78L35.5279 180.299L62.7852 189.157L65.2287 181.638Z" fill="#21A366"/>
</g>
<path d="M176.448 39.0001L164 42.4873L164.962 45.9213L177.41 42.4341L176.448 39.0001Z" fill="#33C481"/>
<path d="M178.011 44.5802L165.563 48.0674L166.525 51.5014L178.973 48.0142L178.011 44.5802Z" fill="#21A366"/>
<g filter="url(#filter19_d_76_1097)">
<path d="M519.402 141.272L509.987 132.413L507.543 135.01L516.958 143.869L519.402 141.272Z" fill="url(#paint31_linear_76_1097)"/>
</g>
<g filter="url(#filter20_d_76_1097)">
<path d="M515.43 145.492L506.016 136.633L503.572 139.23L512.987 148.089L515.43 145.492Z" fill="url(#paint32_linear_76_1097)"/>
</g>
<g filter="url(#filter21_d_76_1097)">
<path d="M191.515 196.66L176.694 191.287C176.175 191.098 175.601 191.367 175.413 191.886L174.424 194.613C174.236 195.132 174.504 195.706 175.023 195.894L189.845 201.268C190.364 201.456 190.938 201.188 191.126 200.668L192.115 197.941C192.303 197.422 192.035 196.848 191.515 196.66Z" fill="url(#paint33_linear_76_1097)"/>
</g>
<g filter="url(#filter22_d_76_1097)">
<path d="M188.801 204.147L173.979 198.773C173.46 198.585 172.886 198.854 172.698 199.373L171.709 202.1C171.521 202.619 171.79 203.193 172.309 203.381L187.13 208.754C187.65 208.943 188.223 208.674 188.411 208.155L189.4 205.428C189.588 204.909 189.32 204.335 188.801 204.147Z" fill="url(#paint34_linear_76_1097)"/>
</g>
<g filter="url(#filter23_d_76_1097)">
<path d="M459.168 177.091L445.931 185.655C445.467 185.955 445.335 186.574 445.635 187.038L447.211 189.473C447.511 189.937 448.13 190.07 448.593 189.77L461.83 181.205C462.294 180.905 462.426 180.286 462.126 179.822L460.551 177.387C460.251 176.923 459.631 176.79 459.168 177.091Z" fill="url(#paint35_linear_76_1097)"/>
</g>
<g filter="url(#filter24_d_76_1097)">
<path d="M463.494 183.777L450.257 192.342C449.794 192.642 449.661 193.261 449.961 193.724L451.537 196.16C451.837 196.624 452.456 196.756 452.92 196.456L466.156 187.892C466.62 187.592 466.753 186.973 466.453 186.509L464.877 184.073C464.577 183.61 463.958 183.477 463.494 183.777Z" fill="url(#paint36_linear_76_1097)"/>
</g>
<path d="M413.469 201.516L403.701 196.618C403.207 196.37 402.606 196.57 402.358 197.063L401.656 198.463C401.409 198.957 401.608 199.558 402.102 199.806L411.87 204.704C412.364 204.951 412.965 204.752 413.212 204.258L413.914 202.858C414.162 202.364 413.962 201.763 413.469 201.516Z" fill="#8EE2B0"/>
<path d="M410.872 206.696L401.103 201.798C400.61 201.55 400.009 201.75 399.761 202.244L399.059 203.644C398.812 204.137 399.011 204.738 399.505 204.986L409.273 209.884C409.767 210.131 410.368 209.932 410.615 209.438L411.317 208.038C411.565 207.544 411.365 206.943 410.872 206.696Z" fill="#8EE2B0"/>
<path d="M605.912 186.895L585.531 178.803C585.018 178.599 584.437 178.85 584.233 179.363L582.535 183.64C582.331 184.153 582.582 184.734 583.095 184.938L603.476 193.03C603.989 193.234 604.57 192.983 604.774 192.47L606.472 188.194C606.676 187.681 606.425 187.099 605.912 186.895Z" fill="url(#paint37_linear_76_1097)"/>
<path d="M601.953 196.865L581.573 188.772C581.06 188.569 580.479 188.819 580.275 189.333L578.577 193.609C578.373 194.122 578.624 194.703 579.137 194.907L599.517 203C600.031 203.203 600.612 202.953 600.816 202.439L602.514 198.163C602.718 197.65 602.467 197.069 601.953 196.865Z" fill="url(#paint38_linear_76_1097)"/>
<path d="M379.299 177.572L380.413 187.156L374.147 187.885L370.913 160.064L380.729 158.923C387.74 158.108 391.588 160.656 392.275 166.567C392.6 169.36 391.854 171.741 390.038 173.709C388.233 175.662 385.649 176.834 382.287 177.225L379.299 177.572ZM377.738 164.147L378.746 172.819L381.21 172.533C384.547 172.145 386.046 170.489 385.706 167.566C385.374 164.708 383.539 163.473 380.202 163.861L377.738 164.147ZM414.701 154.974L407.725 173.953L408.875 183.848L402.609 184.576L401.472 174.798L390.548 157.782L397.707 156.95L403.395 166.808C403.495 166.993 403.796 167.725 404.299 169.003L404.376 168.994C404.436 168.044 404.552 167.29 404.723 166.732L408.066 155.745L414.701 154.974Z" fill="url(#paint39_linear_76_1097)"/>
</g>
<defs>
<filter id="filter0_d_76_1097" x="104.595" y="105.88" width="101.005" height="97.6812" filterUnits="userSpaceOnUse" color-interpolation-filters="sRGB">
<feFlood flood-opacity="0" result="BackgroundImageFix"/>
<feColorMatrix in="SourceAlpha" type="matrix" values="0 0 0 0 0 0 0 0 0 0 0 0 0 0 0 0 0 0 127 0" result="hardAlpha"/>
<feOffset/>
<feGaussianBlur stdDeviation="12"/>
<feComposite in2="hardAlpha" operator="out"/>
<feColorMatrix type="matrix" values="0 0 0 0 0 0 0 0 0 0 0 0 0 0 0 0 0 0 0.09 0"/>
<feBlend mode="normal" in2="BackgroundImageFix" result="effect1_dropShadow_76_1097"/>
<feBlend mode="normal" in="SourceGraphic" in2="effect1_dropShadow_76_1097" result="shape"/>
</filter>
<filter id="filter1_d_76_1097" x="157.976" y="113.99" width="78.1077" height="71.6636" filterUnits="userSpaceOnUse" color-interpolation-filters="sRGB">
<feFlood flood-opacity="0" result="BackgroundImageFix"/>
<feColorMatrix in="SourceAlpha" type="matrix" values="0 0 0 0 0 0 0 0 0 0 0 0 0 0 0 0 0 0 127 0" result="hardAlpha"/>
<feOffset/>
<feGaussianBlur stdDeviation="6.5"/>
<feComposite in2="hardAlpha" operator="out"/>
<feColorMatrix type="matrix" values="0 0 0 0 0 0 0 0 0 0 0 0 0 0 0 0 0 0 0.09 0"/>
<feBlend mode="normal" in2="BackgroundImageFix" result="effect1_dropShadow_76_1097"/>
<feBlend mode="normal" in="SourceGraphic" in2="effect1_dropShadow_76_1097" result="shape"/>
</filter>
<filter id="filter2_d_76_1097" x="87.3359" y="0.866211" width="99.825" height="99.8247" filterUnits="userSpaceOnUse" color-interpolation-filters="sRGB">
<feFlood flood-opacity="0" result="BackgroundImageFix"/>
<feColorMatrix in="SourceAlpha" type="matrix" values="0 0 0 0 0 0 0 0 0 0 0 0 0 0 0 0 0 0 127 0" result="hardAlpha"/>
<feOffset/>
<feGaussianBlur stdDeviation="12"/>
<feComposite in2="hardAlpha" operator="out"/>
<feColorMatrix type="matrix" values="0 0 0 0 0 0 0 0 0 0 0 0 0 0 0 0 0 0 0.09 0"/>
<feBlend mode="normal" in2="BackgroundImageFix" result="effect1_dropShadow_76_1097"/>
<feBlend mode="normal" in="SourceGraphic" in2="effect1_dropShadow_76_1097" result="shape"/>
</filter>
<filter id="filter3_d_76_1097" x="-45.2439" y="64.0625" width="149.844" height="140.46" filterUnits="userSpaceOnUse" color-interpolation-filters="sRGB">
<feFlood flood-opacity="0" result="BackgroundImageFix"/>
<feColorMatrix in="SourceAlpha" type="matrix" values="0 0 0 0 0 0 0 0 0 0 0 0 0 0 0 0 0 0 127 0" result="hardAlpha"/>
<feOffset/>
<feGaussianBlur stdDeviation="12"/>
<feComposite in2="hardAlpha" operator="out"/>
<feColorMatrix type="matrix" values="0 0 0 0 0 0 0 0 0 0 0 0 0 0 0 0 0 0 0.09 0"/>
<feBlend mode="normal" in2="BackgroundImageFix" result="effect1_dropShadow_76_1097"/>
<feBlend mode="normal" in="SourceGraphic" in2="effect1_dropShadow_76_1097" result="shape"/>
</filter>
<filter id="filter4_d_76_1097" x="349.38" y="3.46094" width="107.862" height="100.103" filterUnits="userSpaceOnUse" color-interpolation-filters="sRGB">
<feFlood flood-opacity="0" result="BackgroundImageFix"/>
<feColorMatrix in="SourceAlpha" type="matrix" values="0 0 0 0 0 0 0 0 0 0 0 0 0 0 0 0 0 0 127 0" result="hardAlpha"/>
<feOffset/>
<feGaussianBlur stdDeviation="12"/>
<feComposite in2="hardAlpha" operator="out"/>
<feColorMatrix type="matrix" values="0 0 0 0 0 0 0 0 0 0 0 0 0 0 0 0 0 0 0.09 0"/>
<feBlend mode="normal" in2="BackgroundImageFix" result="effect1_dropShadow_76_1097"/>
<feBlend mode="normal" in="SourceGraphic" in2="effect1_dropShadow_76_1097" result="shape"/>
</filter>
<filter id="filter5_d_76_1097" x="328.594" y="23.2261" width="74.7661" height="78.0156" filterUnits="userSpaceOnUse" color-interpolation-filters="sRGB">
<feFlood flood-opacity="0" result="BackgroundImageFix"/>
<feColorMatrix in="SourceAlpha" type="matrix" values="0 0 0 0 0 0 0 0 0 0 0 0 0 0 0 0 0 0 127 0" result="hardAlpha"/>
<feOffset/>
<feGaussianBlur stdDeviation="12"/>
<feComposite in2="hardAlpha" operator="out"/>
<feColorMatrix type="matrix" values="0 0 0 0 0 0 0 0 0 0 0 0 0 0 0 0 0 0 0.09 0"/>
<feBlend mode="normal" in2="BackgroundImageFix" result="effect1_dropShadow_76_1097"/>
<feBlend mode="normal" in="SourceGraphic" in2="effect1_dropShadow_76_1097" result="shape"/>
</filter>
<filter id="filter6_d_76_1097" x="273.836" y="37.0547" width="70.0759" height="66.4248" filterUnits="userSpaceOnUse" color-interpolation-filters="sRGB">
<feFlood flood-opacity="0" result="BackgroundImageFix"/>
<feColorMatrix in="SourceAlpha" type="matrix" values="0 0 0 0 0 0 0 0 0 0 0 0 0 0 0 0 0 0 127 0" result="hardAlpha"/>
<feOffset/>
<feGaussianBlur stdDeviation="12"/>
<feComposite in2="hardAlpha" operator="out"/>
<feColorMatrix type="matrix" values="0 0 0 0 0 0 0 0 0 0 0 0 0 0 0 0 0 0 0.09 0"/>
<feBlend mode="normal" in2="BackgroundImageFix" result="effect1_dropShadow_76_1097"/>
<feBlend mode="normal" in="SourceGraphic" in2="effect1_dropShadow_76_1097" result="shape"/>
</filter>
<filter id="filter7_d_76_1097" x="480.562" y="120.786" width="78.0107" height="75.6406" filterUnits="userSpaceOnUse" color-interpolation-filters="sRGB">
<feFlood flood-opacity="0" result="BackgroundImageFix"/>
<feColorMatrix in="SourceAlpha" type="matrix" values="0 0 0 0 0 0 0 0 0 0 0 0 0 0 0 0 0 0 127 0" result="hardAlpha"/>
<feOffset/>
<feGaussianBlur stdDeviation="12"/>
<feComposite in2="hardAlpha" operator="out"/>
<feColorMatrix type="matrix" values="0 0 0 0 0 0 0 0 0 0 0 0 0 0 0 0 0 0 0.09 0"/>
<feBlend mode="normal" in2="BackgroundImageFix" result="effect1_dropShadow_76_1097"/>
<feBlend mode="normal" in="SourceGraphic" in2="effect1_dropShadow_76_1097" result="shape"/>
</filter>
<filter id="filter8_d_76_1097" x="541.198" y="82.6104" width="94.9731" height="91.2637" filterUnits="userSpaceOnUse" color-interpolation-filters="sRGB">
<feFlood flood-opacity="0" result="BackgroundImageFix"/>
<feColorMatrix in="SourceAlpha" type="matrix" values="0 0 0 0 0 0 0 0 0 0 0 0 0 0 0 0 0 0 127 0" result="hardAlpha"/>
<feOffset/>
<feGaussianBlur stdDeviation="12"/>
<feComposite in2="hardAlpha" operator="out"/>
<feColorMatrix type="matrix" values="0 0 0 0 0 0 0 0 0 0 0 0 0 0 0 0 0 0 0.09 0"/>
<feBlend mode="normal" in2="BackgroundImageFix" result="effect1_dropShadow_76_1097"/>
<feBlend mode="normal" in="SourceGraphic" in2="effect1_dropShadow_76_1097" result="shape"/>
</filter>
<filter id="filter9_d_76_1097" x="86.1516" y="65.9565" width="69.6707" height="64.479" filterUnits="userSpaceOnUse" color-interpolation-filters="sRGB">
<feFlood flood-opacity="0" result="BackgroundImageFix"/>
<feColorMatrix in="SourceAlpha" type="matrix" values="0 0 0 0 0 0 0 0 0 0 0 0 0 0 0 0 0 0 127 0" result="hardAlpha"/>
<feOffset/>
<feGaussianBlur stdDeviation="12"/>
<feComposite in2="hardAlpha" operator="out"/>
<feColorMatrix type="matrix" values="0 0 0 0 0 0 0 0 0 0 0 0 0 0 0 0 0 0 0.09 0"/>
<feBlend mode="normal" in2="BackgroundImageFix" result="effect1_dropShadow_76_1097"/>
<feBlend mode="normal" in="SourceGraphic" in2="effect1_dropShadow_76_1097" result="shape"/>
</filter>
<filter id="filter10_d_76_1097" x="88.8533" y="170.353" width="70.2842" height="66.1807" filterUnits="userSpaceOnUse" color-interpolation-filters="sRGB">
<feFlood flood-opacity="0" result="BackgroundImageFix"/>
<feColorMatrix in="SourceAlpha" type="matrix" values="0 0 0 0 0 0 0 0 0 0 0 0 0 0 0 0 0 0 127 0" result="hardAlpha"/>
<feOffset/>
<feGaussianBlur stdDeviation="12"/>
<feComposite in2="hardAlpha" operator="out"/>
<feColorMatrix type="matrix" values="0 0 0 0 0 0 0 0 0 0 0 0 0 0 0 0 0 0 0.09 0"/>
<feBlend mode="normal" in2="BackgroundImageFix" result="effect1_dropShadow_76_1097"/>
<feBlend mode="normal" in="SourceGraphic" in2="effect1_dropShadow_76_1097" result="shape"/>
</filter>
<filter id="filter11_d_76_1097" x="205.678" y="174.812" width="70.135" height="65.7036" filterUnits="userSpaceOnUse" color-interpolation-filters="sRGB">
<feFlood flood-opacity="0" result="BackgroundImageFix"/>
<feColorMatrix in="SourceAlpha" type="matrix" values="0 0 0 0 0 0 0 0 0 0 0 0 0 0 0 0 0 0 127 0" result="hardAlpha"/>
<feOffset/>
<feGaussianBlur stdDeviation="12"/>
<feComposite in2="hardAlpha" operator="out"/>
<feColorMatrix type="matrix" values="0 0 0 0 0 0 0 0 0 0 0 0 0 0 0 0 0 0 0.09 0"/>
<feBlend mode="normal" in2="BackgroundImageFix" result="effect1_dropShadow_76_1097"/>
<feBlend mode="normal" in="SourceGraphic" in2="effect1_dropShadow_76_1097" result="shape"/>
</filter>
<filter id="filter12_d_76_1097" x="424.101" y="70.6865" width="75.0999" height="68.2021" filterUnits="userSpaceOnUse" color-interpolation-filters="sRGB">
<feFlood flood-opacity="0" result="BackgroundImageFix"/>
<feColorMatrix in="SourceAlpha" type="matrix" values="0 0 0 0 0 0 0 0 0 0 0 0 0 0 0 0 0 0 127 0" result="hardAlpha"/>
<feOffset/>
<feGaussianBlur stdDeviation="12"/>
<feComposite in2="hardAlpha" operator="out"/>
<feColorMatrix type="matrix" values="0 0 0 0 0 0 0 0 0 0 0 0 0 0 0 0 0 0 0.09 0"/>
<feBlend mode="normal" in2="BackgroundImageFix" result="effect1_dropShadow_76_1097"/>
<feBlend mode="normal" in="SourceGraphic" in2="effect1_dropShadow_76_1097" result="shape"/>
</filter>
<filter id="filter13_d_76_1097" x="417.665" y="81.3931" width="75.0999" height="68.2021" filterUnits="userSpaceOnUse" color-interpolation-filters="sRGB">
<feFlood flood-opacity="0" result="BackgroundImageFix"/>
<feColorMatrix in="SourceAlpha" type="matrix" values="0 0 0 0 0 0 0 0 0 0 0 0 0 0 0 0 0 0 127 0" result="hardAlpha"/>
<feOffset/>
<feGaussianBlur stdDeviation="12"/>
<feComposite in2="hardAlpha" operator="out"/>
<feColorMatrix type="matrix" values="0 0 0 0 0 0 0 0 0 0 0 0 0 0 0 0 0 0 0.09 0"/>
<feBlend mode="normal" in2="BackgroundImageFix" result="effect1_dropShadow_76_1097"/>
<feBlend mode="normal" in="SourceGraphic" in2="effect1_dropShadow_76_1097" result="shape"/>
</filter>
<filter id="filter14_d_76_1097" x="243.514" y="93.3223" width="97.5256" height="85.7881" filterUnits="userSpaceOnUse" color-interpolation-filters="sRGB">
<feFlood flood-opacity="0" result="BackgroundImageFix"/>
<feColorMatrix in="SourceAlpha" type="matrix" values="0 0 0 0 0 0 0 0 0 0 0 0 0 0 0 0 0 0 127 0" result="hardAlpha"/>
<feOffset/>
<feGaussianBlur stdDeviation="12"/>
<feComposite in2="hardAlpha" operator="out"/>
<feColorMatrix type="matrix" values="0 0 0 0 0 0 0 0 0 0 0 0 0 0 0 0 0 0 0.09 0"/>
<feBlend mode="normal" in2="BackgroundImageFix" result="effect1_dropShadow_76_1097"/>
<feBlend mode="normal" in="SourceGraphic" in2="effect1_dropShadow_76_1097" result="shape"/>
</filter>
<filter id="filter15_d_76_1097" x="311.788" y="101.368" width="104.534" height="107.795" filterUnits="userSpaceOnUse" color-interpolation-filters="sRGB">
<feFlood flood-opacity="0" result="BackgroundImageFix"/>
<feColorMatrix in="SourceAlpha" type="matrix" values="0 0 0 0 0 0 0 0 0 0 0 0 0 0 0 0 0 0 127 0" result="hardAlpha"/>
<feOffset/>
<feGaussianBlur stdDeviation="12"/>
<feComposite in2="hardAlpha" operator="out"/>
<feColorMatrix type="matrix" values="0 0 0 0 0 0 0 0 0 0 0 0 0 0 0 0 0 0 0.09 0"/>
<feBlend mode="normal" in2="BackgroundImageFix" result="effect1_dropShadow_76_1097"/>
<feBlend mode="normal" in="SourceGraphic" in2="effect1_dropShadow_76_1097" result="shape"/>
</filter>
<filter id="filter16_d_76_1097" x="392.729" y="105.007" width="80.2341" height="72.6548" filterUnits="userSpaceOnUse" color-interpolation-filters="sRGB">
<feFlood flood-opacity="0" result="BackgroundImageFix"/>
<feColorMatrix in="SourceAlpha" type="matrix" values="0 0 0 0 0 0 0 0 0 0 0 0 0 0 0 0 0 0 127 0" result="hardAlpha"/>
<feOffset/>
<feGaussianBlur stdDeviation="12"/>
<feComposite in2="hardAlpha" operator="out"/>
<feColorMatrix type="matrix" values="0 0 0 0 0 0 0 0 0 0 0 0 0 0 0 0 0 0 0.09 0"/>
<feBlend mode="normal" in2="BackgroundImageFix" result="effect1_dropShadow_76_1097"/>
<feBlend mode="normal" in="SourceGraphic" in2="effect1_dropShadow_76_1097" result="shape"/>
</filter>
<filter id="filter17_d_76_1097" x="200.12" y="150.928" width="77.616" height="60.2998" filterUnits="userSpaceOnUse" color-interpolation-filters="sRGB">
<feFlood flood-opacity="0" result="BackgroundImageFix"/>
<feColorMatrix in="SourceAlpha" type="matrix" values="0 0 0 0 0 0 0 0 0 0 0 0 0 0 0 0 0 0 127 0" result="hardAlpha"/>
<feOffset/>
<feGaussianBlur stdDeviation="12"/>
<feComposite in2="hardAlpha" operator="out"/>
<feColorMatrix type="matrix" values="0 0 0 0 0 0 0 0 0 0 0 0 0 0 0 0 0 0 0.09 0"/>
<feBlend mode="normal" in2="BackgroundImageFix" result="effect1_dropShadow_76_1097"/>
<feBlend mode="normal" in="SourceGraphic" in2="effect1_dropShadow_76_1097" result="shape"/>
</filter>
<filter id="filter18_d_76_1097" x="198.011" y="138.1" width="77.616" height="60.2998" filterUnits="userSpaceOnUse" color-interpolation-filters="sRGB">
<feFlood flood-opacity="0" result="BackgroundImageFix"/>
<feColorMatrix in="SourceAlpha" type="matrix" values="0 0 0 0 0 0 0 0 0 0 0 0 0 0 0 0 0 0 127 0" result="hardAlpha"/>
<feOffset/>
<feGaussianBlur stdDeviation="12"/>
<feComposite in2="hardAlpha" operator="out"/>
<feColorMatrix type="matrix" values="0 0 0 0 0 0 0 0 0 0 0 0 0 0 0 0 0 0 0.09 0"/>
<feBlend mode="normal" in2="BackgroundImageFix" result="effect1_dropShadow_76_1097"/>
<feBlend mode="normal" in="SourceGraphic" in2="effect1_dropShadow_76_1097" result="shape"/>
</filter>
<filter id="filter19_d_76_1097" x="483.543" y="108.413" width="59.8584" height="59.4561" filterUnits="userSpaceOnUse" color-interpolation-filters="sRGB">
<feFlood flood-opacity="0" result="BackgroundImageFix"/>
<feColorMatrix in="SourceAlpha" type="matrix" values="0 0 0 0 0 0 0 0 0 0 0 0 0 0 0 0 0 0 127 0" result="hardAlpha"/>
<feOffset/>
<feGaussianBlur stdDeviation="12"/>
<feComposite in2="hardAlpha" operator="out"/>
<feColorMatrix type="matrix" values="0 0 0 0 0 0 0 0 0 0 0 0 0 0 0 0 0 0 0.09 0"/>
<feBlend mode="normal" in2="BackgroundImageFix" result="effect1_dropShadow_76_1097"/>
<feBlend mode="normal" in="SourceGraphic" in2="effect1_dropShadow_76_1097" result="shape"/>
</filter>
<filter id="filter20_d_76_1097" x="479.572" y="112.633" width="59.8584" height="59.4561" filterUnits="userSpaceOnUse" color-interpolation-filters="sRGB">
<feFlood flood-opacity="0" result="BackgroundImageFix"/>
<feColorMatrix in="SourceAlpha" type="matrix" values="0 0 0 0 0 0 0 0 0 0 0 0 0 0 0 0 0 0 127 0" result="hardAlpha"/>
<feOffset/>
<feGaussianBlur stdDeviation="12"/>
<feComposite in2="hardAlpha" operator="out"/>
<feColorMatrix type="matrix" values="0 0 0 0 0 0 0 0 0 0 0 0 0 0 0 0 0 0 0.09 0"/>
<feBlend mode="normal" in2="BackgroundImageFix" result="effect1_dropShadow_76_1097"/>
<feBlend mode="normal" in="SourceGraphic" in2="effect1_dropShadow_76_1097" result="shape"/>
</filter>
<filter id="filter21_d_76_1097" x="150.364" y="167.227" width="65.8108" height="58.1011" filterUnits="userSpaceOnUse" color-interpolation-filters="sRGB">
<feFlood flood-opacity="0" result="BackgroundImageFix"/>
<feColorMatrix in="SourceAlpha" type="matrix" values="0 0 0 0 0 0 0 0 0 0 0 0 0 0 0 0 0 0 127 0" result="hardAlpha"/>
<feOffset/>
<feGaussianBlur stdDeviation="12"/>
<feComposite in2="hardAlpha" operator="out"/>
<feColorMatrix type="matrix" values="0 0 0 0 0 0 0 0 0 0 0 0 0 0 0 0 0 0 0.09 0"/>
<feBlend mode="normal" in2="BackgroundImageFix" result="effect1_dropShadow_76_1097"/>
<feBlend mode="normal" in="SourceGraphic" in2="effect1_dropShadow_76_1097" result="shape"/>
</filter>
<filter id="filter22_d_76_1097" x="147.649" y="174.713" width="65.8108" height="58.1011" filterUnits="userSpaceOnUse" color-interpolation-filters="sRGB">
<feFlood flood-opacity="0" result="BackgroundImageFix"/>
<feColorMatrix in="SourceAlpha" type="matrix" values="0 0 0 0 0 0 0 0 0 0 0 0 0 0 0 0 0 0 127 0" result="hardAlpha"/>
<feOffset/>
<feGaussianBlur stdDeviation="12"/>
<feComposite in2="hardAlpha" operator="out"/>
<feColorMatrix type="matrix" values="0 0 0 0 0 0 0 0 0 0 0 0 0 0 0 0 0 0 0.09 0"/>
<feBlend mode="normal" in2="BackgroundImageFix" result="effect1_dropShadow_76_1097"/>
<feBlend mode="normal" in="SourceGraphic" in2="effect1_dropShadow_76_1097" result="shape"/>
</filter>
<filter id="filter23_d_76_1097" x="421.474" y="152.93" width="64.8125" height="61" filterUnits="userSpaceOnUse" color-interpolation-filters="sRGB">
<feFlood flood-opacity="0" result="BackgroundImageFix"/>
<feColorMatrix in="SourceAlpha" type="matrix" values="0 0 0 0 0 0 0 0 0 0 0 0 0 0 0 0 0 0 127 0" result="hardAlpha"/>
<feOffset/>
<feGaussianBlur stdDeviation="12"/>
<feComposite in2="hardAlpha" operator="out"/>
<feColorMatrix type="matrix" values="0 0 0 0 0 0 0 0 0 0 0 0 0 0 0 0 0 0 0.09 0"/>
<feBlend mode="normal" in2="BackgroundImageFix" result="effect1_dropShadow_76_1097"/>
<feBlend mode="normal" in="SourceGraphic" in2="effect1_dropShadow_76_1097" result="shape"/>
</filter>
<filter id="filter24_d_76_1097" x="425.801" y="159.617" width="64.8125" height="61" filterUnits="userSpaceOnUse" color-interpolation-filters="sRGB">
<feFlood flood-opacity="0" result="BackgroundImageFix"/>
<feColorMatrix in="SourceAlpha" type="matrix" values="0 0 0 0 0 0 0 0 0 0 0 0 0 0 0 0 0 0 127 0" result="hardAlpha"/>
<feOffset/>
<feGaussianBlur stdDeviation="12"/>
<feComposite in2="hardAlpha" operator="out"/>
<feColorMatrix type="matrix" values="0 0 0 0 0 0 0 0 0 0 0 0 0 0 0 0 0 0 0.09 0"/>
<feBlend mode="normal" in2="BackgroundImageFix" result="effect1_dropShadow_76_1097"/>
<feBlend mode="normal" in="SourceGraphic" in2="effect1_dropShadow_76_1097" result="shape"/>
</filter>
<linearGradient id="paint0_linear_76_1097" x1="144.393" y1="175.061" x2="183.621" y2="136.506" gradientUnits="userSpaceOnUse">
<stop offset="0.115215" stop-color="#C0EDD2"/>
<stop offset="1" stop-color="#D6FFE6"/>
</linearGradient>
<linearGradient id="paint1_linear_76_1097" x1="188.826" y1="155.436" x2="220.777" y2="123.352" gradientUnits="userSpaceOnUse">
<stop stop-color="#89E3AE"/>
<stop offset="1" stop-color="#C8F9DC"/>
</linearGradient>
<linearGradient id="paint2_linear_76_1097" x1="123.876" y1="69.4731" x2="167.984" y2="36.6125" gradientUnits="userSpaceOnUse">
<stop offset="0.115215" stop-color="#C0EDD2"/>
<stop offset="1" stop-color="#D6FFE6"/>
</linearGradient>
<linearGradient id="paint3_linear_76_1097" x1="59.7372" y1="168.102" x2="15.5446" y2="69.7182" gradientUnits="userSpaceOnUse">
<stop offset="0.115215" stop-color="#C0EDD2"/>
<stop offset="1" stop-color="#D6FFE6"/>
</linearGradient>
<linearGradient id="paint4_linear_76_1097" x1="372.104" y1="64.0181" x2="450.936" y2="68.1347" gradientUnits="userSpaceOnUse">
<stop stop-color="#C0EDD2"/>
<stop offset="1" stop-color="#D6FFE6"/>
</linearGradient>
<linearGradient id="paint5_linear_76_1097" x1="363.668" y1="67.3262" x2="370.087" y2="41.6987" gradientUnits="userSpaceOnUse">
<stop stop-color="#89E3AE"/>
<stop offset="1" stop-color="#C8F9DC"/>
</linearGradient>
<linearGradient id="paint6_linear_76_1097" x1="306.878" y1="79.6169" x2="319.446" y2="59.332" gradientUnits="userSpaceOnUse">
<stop offset="0.115215" stop-color="#C0EDD2"/>
<stop offset="1" stop-color="#D6FFE6"/>
</linearGradient>
<linearGradient id="paint7_linear_76_1097" x1="298.181" y1="194.071" x2="315.262" y2="161.347" gradientUnits="userSpaceOnUse">
<stop stop-color="#0B9543"/>
<stop offset="0.816038" stop-color="#12CF74"/>
</linearGradient>
<linearGradient id="paint8_linear_76_1097" x1="472.32" y1="174.673" x2="523.578" y2="114.722" gradientUnits="userSpaceOnUse">
<stop offset="0.329006" stop-color="#C0EDD2"/>
<stop offset="1" stop-color="#D6FFE6"/>
</linearGradient>
<linearGradient id="paint9_linear_76_1097" x1="524.602" y1="176.416" x2="534.042" y2="135.656" gradientUnits="userSpaceOnUse">
<stop offset="0.0406389" stop-color="#0B9543"/>
<stop offset="1" stop-color="#12CF74"/>
</linearGradient>
<linearGradient id="paint10_linear_76_1097" x1="581.745" y1="133.971" x2="614.479" y2="96.2529" gradientUnits="userSpaceOnUse">
<stop stop-color="#89E3AE"/>
<stop offset="0.86543" stop-color="#C8F9DC"/>
</linearGradient>
<linearGradient id="paint11_linear_76_1097" x1="125.06" y1="106.81" x2="122.325" y2="83.1044" gradientUnits="userSpaceOnUse">
<stop offset="0.115215" stop-color="#C0EDD2"/>
<stop offset="1" stop-color="#D6FFE6"/>
</linearGradient>
<linearGradient id="paint12_linear_76_1097" x1="122.11" y1="212.784" x2="134.091" y2="192.146" gradientUnits="userSpaceOnUse">
<stop offset="0.115215" stop-color="#C0EDD2"/>
<stop offset="1" stop-color="#D6FFE6"/>
</linearGradient>
<linearGradient id="paint13_linear_76_1097" x1="245.517" y1="215.913" x2="240.832" y2="192.514" gradientUnits="userSpaceOnUse">
<stop offset="0.115215" stop-color="#C0EDD2"/>
<stop offset="1" stop-color="#D6FFE6"/>
</linearGradient>
<linearGradient id="paint14_linear_76_1097" x1="338.881" y1="103.397" x2="347.62" y2="100.348" gradientUnits="userSpaceOnUse">
<stop stop-color="#D0FCE1"/>
<stop offset="1" stop-color="#E7FFF0"/>
</linearGradient>
<linearGradient id="paint15_linear_76_1097" x1="332.144" y1="107.644" x2="340.883" y2="104.596" gradientUnits="userSpaceOnUse">
<stop stop-color="#D0FCE1"/>
<stop offset="1" stop-color="#E7FFF0"/>
</linearGradient>
<linearGradient id="paint16_linear_76_1097" x1="395.188" y1="100.257" x2="386.649" y2="86.5218" gradientUnits="userSpaceOnUse">
<stop stop-color="#D0FCE1"/>
<stop offset="1" stop-color="#E7FFF0"/>
</linearGradient>
<linearGradient id="paint17_linear_76_1097" x1="405.006" y1="110.119" x2="396.468" y2="96.3836" gradientUnits="userSpaceOnUse">
<stop stop-color="#D0FCE1"/>
<stop offset="1" stop-color="#E7FFF0"/>
</linearGradient>
<linearGradient id="paint18_linear_76_1097" x1="385.625" y1="137.79" x2="395.887" y2="104.907" gradientUnits="userSpaceOnUse">
<stop stop-color="#0B9543"/>
<stop offset="1" stop-color="#12CF74"/>
</linearGradient>
<linearGradient id="paint19_linear_76_1097" x1="473.129" y1="96.4673" x2="476.273" y2="87.1651" gradientUnits="userSpaceOnUse">
<stop stop-color="#0B9543"/>
<stop offset="1" stop-color="#12CF74"/>
</linearGradient>
<linearGradient id="paint20_linear_76_1097" x1="470.322" y1="106.902" x2="473.466" y2="97.6001" gradientUnits="userSpaceOnUse">
<stop stop-color="#0B9543"/>
<stop offset="1" stop-color="#12CF74"/>
</linearGradient>
<linearGradient id="paint21_linear_76_1097" x1="463.632" y1="101.493" x2="454.657" y2="110.3" gradientUnits="userSpaceOnUse">
<stop stop-color="#CCF3DC"/>
<stop offset="1" stop-color="#AAE6C2"/>
</linearGradient>
<linearGradient id="paint22_linear_76_1097" x1="457.195" y1="112.2" x2="448.221" y2="121.006" gradientUnits="userSpaceOnUse">
<stop stop-color="#CCF3DC"/>
<stop offset="1" stop-color="#AAE6C2"/>
</linearGradient>
<linearGradient id="paint23_linear_76_1097" x1="496.808" y1="44.3389" x2="490.83" y2="33.6078" gradientUnits="userSpaceOnUse">
<stop stop-color="#D0FCE1"/>
<stop offset="1" stop-color="#E7FFF0"/>
</linearGradient>
<linearGradient id="paint24_linear_76_1097" x1="506.835" y1="56.0166" x2="500.858" y2="45.2855" gradientUnits="userSpaceOnUse">
<stop stop-color="#D0FCE1"/>
<stop offset="1" stop-color="#E7FFF0"/>
</linearGradient>
<linearGradient id="paint25_linear_76_1097" x1="282.434" y1="134.822" x2="323.721" y2="161.161" gradientUnits="userSpaceOnUse">
<stop stop-color="#89E3AE"/>
<stop offset="1" stop-color="#C8F9DC"/>
</linearGradient>
<linearGradient id="paint26_linear_76_1097" x1="346.698" y1="134.603" x2="402.424" y2="184.614" gradientUnits="userSpaceOnUse">
<stop stop-color="#C0EDD2"/>
<stop offset="1" stop-color="#D6FFE6"/>
</linearGradient>
<linearGradient id="paint27_linear_76_1097" x1="417.784" y1="138.718" x2="459.904" y2="141.709" gradientUnits="userSpaceOnUse">
<stop stop-color="#C0EDD2"/>
<stop offset="1" stop-color="#D6FFE6"/>
</linearGradient>
<linearGradient id="paint28_linear_76_1097" x1="516.362" y1="219.512" x2="537.183" y2="234.099" gradientUnits="userSpaceOnUse">
<stop stop-color="#D0FCE1"/>
<stop offset="1" stop-color="#E7FFF0"/>
</linearGradient>
<linearGradient id="paint29_linear_76_1097" x1="243.693" y1="175.333" x2="242.098" y2="190.697" gradientUnits="userSpaceOnUse">
<stop offset="0.0406389" stop-color="#0B9543"/>
<stop offset="1" stop-color="#12CF74"/>
</linearGradient>
<linearGradient id="paint30_linear_76_1097" x1="241.584" y1="162.505" x2="239.989" y2="177.869" gradientUnits="userSpaceOnUse">
<stop offset="0.0406389" stop-color="#0B9543"/>
<stop offset="1" stop-color="#12CF74"/>
</linearGradient>
<linearGradient id="paint31_linear_76_1097" x1="515.829" y1="139.96" x2="510.607" y2="131.073" gradientUnits="userSpaceOnUse">
<stop stop-color="#89E3AE"/>
<stop offset="1" stop-color="#C8F9DC"/>
</linearGradient>
<linearGradient id="paint32_linear_76_1097" x1="511.858" y1="144.18" x2="506.636" y2="135.293" gradientUnits="userSpaceOnUse">
<stop stop-color="#89E3AE"/>
<stop offset="1" stop-color="#C8F9DC"/>
</linearGradient>
<linearGradient id="paint33_linear_76_1097" x1="184.105" y1="193.973" x2="179.57" y2="200.583" gradientUnits="userSpaceOnUse">
<stop stop-color="#AAE6C2"/>
<stop offset="1" stop-color="#CCF3DC"/>
</linearGradient>
<linearGradient id="paint34_linear_76_1097" x1="181.39" y1="201.46" x2="176.855" y2="208.07" gradientUnits="userSpaceOnUse">
<stop stop-color="#AAE6C2"/>
<stop offset="1" stop-color="#CCF3DC"/>
</linearGradient>
<linearGradient id="paint35_linear_76_1097" x1="452.549" y1="181.373" x2="455.076" y2="188.98" gradientUnits="userSpaceOnUse">
<stop stop-color="#AAE6C2"/>
<stop offset="1" stop-color="#CCF3DC"/>
</linearGradient>
<linearGradient id="paint36_linear_76_1097" x1="456.876" y1="188.059" x2="459.403" y2="195.666" gradientUnits="userSpaceOnUse">
<stop stop-color="#AAE6C2"/>
<stop offset="1" stop-color="#CCF3DC"/>
</linearGradient>
<linearGradient id="paint37_linear_76_1097" x1="591.535" y1="187.346" x2="594.901" y2="180.822" gradientUnits="userSpaceOnUse">
<stop stop-color="#D0FCE1"/>
<stop offset="1" stop-color="#E7FFF0"/>
</linearGradient>
<linearGradient id="paint38_linear_76_1097" x1="587.577" y1="197.315" x2="590.943" y2="190.791" gradientUnits="userSpaceOnUse">
<stop stop-color="#D0FCE1"/>
<stop offset="1" stop-color="#E7FFF0"/>
</linearGradient>
<linearGradient id="paint39_linear_76_1097" x1="386.606" y1="183.266" x2="428.292" y2="155.225" gradientUnits="userSpaceOnUse">
<stop stop-color="#7AE2A4"/>
<stop offset="1" stop-color="#C8F9DC"/>
</linearGradient>
</defs>
</svg>
