<svg width="32" height="32" viewBox="0 0 32 32" fill="none"
  xmlns="http://www.w3.org/2000/svg">
  <path d="M20.5716 3.42871H10.2859C9.65507 3.42871 9.14307 3.94071 9.14307 4.57157V10.2859L20.5716 16.0001L25.1431 17.7144L29.7145 16.0001V10.2859L20.5716 3.42871Z" fill="#21A366"/>
  <path d="M9.14307 15.9999H20.5716V10.3096H9.14307V15.9999Z" fill="#107C41"/>
  <path d="M29.7141 4.57157V10.2859H20.5713V3.42871H28.5713C29.1999 3.42871 29.7141 3.943 29.7141 4.57157Z" fill="#33C481"/>
  <path d="M20.5716 16H9.14307V21.736V21.784V27.4286C9.14307 28.0594 9.65507 28.5714 10.2859 28.5714H28.5716C29.2025 28.5714 29.7145 28.0594 29.7145 27.4286V21.7143L20.5716 16Z" fill="#185C37"/>
  <path opacity="0.5" d="M18.0951 9.14307H9.14307V25.1431H17.8334C18.6425 25.1431 19.4288 24.3294 19.4288 23.5956V10.4768C19.4288 9.74307 18.8288 9.14307 18.0951 9.14307Z" fill="black"/>
  <path d="M16.9519 23.9993H3.61936C2.88336 23.9993 2.28564 23.4028 2.28564 22.6656V9.33306C2.28564 8.59706 2.88336 8.00049 3.61936 8.00049H16.9519C17.6879 8.00049 18.2856 8.59706 18.2856 9.33306V22.6656C18.2856 23.4028 17.6879 23.9993 16.9519 23.9993Z" fill="#107C41"/>
  <path d="M6.20215 20.5716L9.16101 15.9876L6.45129 11.4287H8.63186L10.1107 14.343C10.2467 14.6184 10.3404 14.8253 10.3907 14.9613H10.4101C10.5084 14.7396 10.6101 14.5247 10.7164 14.3167L12.297 11.4287H14.2993L11.5199 15.9624L14.369 20.5716H12.2399L10.5313 17.3704C10.4593 17.2516 10.3907 17.1099 10.3267 16.9441H10.3016C10.2719 17.0459 10.2067 17.1841 10.1039 17.3579L8.34501 20.5716H6.20215Z" fill="white"/>
  <path d="M20.5713 21.7143H29.7141V16H20.5713V21.7143Z" fill="#107C41"/>
</svg>
